<?xml version="1.0" encoding="UTF-8" standalone="no"?>
<!-- Created with Inkscape (http://www.inkscape.org/) -->
<svg xmlns:dc="http://purl.org/dc/elements/1.1/" xmlns:cc="http://creativecommons.org/ns#" xmlns:rdf="http://www.w3.org/1999/02/22-rdf-syntax-ns#" xmlns:svg="http://www.w3.org/2000/svg" xmlns="http://www.w3.org/2000/svg" xmlns:sodipodi="http://sodipodi.sourceforge.net/DTD/sodipodi-0.dtd" xmlns:inkscape="http://www.inkscape.org/namespaces/inkscape" width="184.7646mm" height="96.200119mm" viewBox="0 0 184.7646 96.200119" version="1.1" id="svg864" inkscape:version="0.92.5 (2060ec1f9f, 2020-04-08)" sodipodi:docname="logo.svg">
  <defs id="defs858"/>
  <sodipodi:namedview id="base" pagecolor="#ffffff" bordercolor="#666666" borderopacity="1.0" inkscape:pageopacity="0.0" inkscape:pageshadow="2" inkscape:zoom="0.70710678" inkscape:cx="452.11464" inkscape:cy="140.32631" inkscape:document-units="mm" inkscape:current-layer="layer1" showgrid="false" inkscape:window-width="1280" inkscape:window-height="1000" inkscape:window-x="1280" inkscape:window-y="13" inkscape:window-maximized="1" fit-margin-top="0" fit-margin-left="0" fit-margin-right="0" fit-margin-bottom="0"/>
  <metadata id="metadata861">
    <rdf:RDF>
      <cc:Work rdf:about="">
        <dc:format>image/svg+xml</dc:format>
        <dc:type rdf:resource="http://purl.org/dc/dcmitype/StillImage"/>
        <dc:title/>
      </cc:Work>
    </rdf:RDF>
  </metadata>
  <g inkscape:label="Layer 1" inkscape:groupmode="layer" id="layer1" transform="translate(-11.245785,-42.177354)">
    <g id="g1461" inkscape:export-xdpi="600" inkscape:export-ydpi="600">
      <text id="text851" y="123.81643" x="10.86958" style="font-style:normal;font-variant:normal;font-weight:normal;font-stretch:normal;font-size:9.87777805px;line-height:1.25;font-family:'Courier New';-inkscape-font-specification:'Courier New, Normal';font-variant-ligatures:normal;font-variant-caps:normal;font-variant-numeric:normal;font-feature-settings:normal;text-align:start;letter-spacing:0px;word-spacing:0px;writing-mode:lr-tb;text-anchor:start;fill:#053c80;fill-opacity:1;stroke:none;stroke-width:0.26458332" xml:space="preserve"><tspan style="font-style:normal;font-variant:normal;font-weight:normal;font-stretch:normal;font-size:9.87777805px;font-family:'Courier New';-inkscape-font-specification:'Courier New, Normal';font-variant-ligatures:normal;font-variant-caps:normal;font-variant-numeric:normal;font-feature-settings:normal;text-align:start;writing-mode:lr-tb;text-anchor:start;fill:#053c80;fill-opacity:1;stroke-width:0.26458332" y="123.81643" x="10.86958" id="tspan849" sodipodi:role="line">Imperial College </tspan><tspan id="tspan853" style="font-style:normal;font-variant:normal;font-weight:bold;font-stretch:normal;font-size:9.87777805px;font-family:'Courier New';-inkscape-font-specification:'Courier New, Normal';font-variant-ligatures:normal;font-variant-caps:normal;font-variant-numeric:normal;font-feature-settings:normal;text-align:start;writing-mode:lr-tb;text-anchor:start;fill:#053c80;fill-opacity:1;stroke-width:0.26458332" y="136.16365" x="10.86958" sodipodi:role="line">Computational Biology Society</tspan></text>
      <g transform="matrix(0.50688,0,0,0.50688,107.39602,-37.385698)" id="g909">
        <circle style="opacity:1;fill:#ffffff;fill-opacity:1;stroke:none;stroke-width:0.30921364;stroke-linecap:round;stroke-miterlimit:4;stroke-dasharray:none;stroke-dashoffset:0;stroke-opacity:1" id="path905" cx="87.3927" cy="239.46625" r="82.5"/>
        <path inkscape:connector-curvature="0" id="path838" d="m 84.315839,316.79726 c -7.75359,-0.383 -14.64489,-1.65233 -21.61286,-3.98092 -2.04904,-0.68477 -2.60199,-0.91327 -2.60044,-1.07461 7.9e-4,-0.0781 0.0725,-0.71351 0.15954,-1.41201 0.19069,-1.53098 0.1607,-0.94287 0.23009,-4.51252 0.0676,-3.47638 -0.0238,-5.34239 -0.40485,-8.27215 -0.13932,-1.07103 -0.27063,-2.09973 -0.2918,-2.286 -0.0212,-0.18626 -0.0924,-0.66251 -0.15841,-1.05833 -0.066,-0.39582 -0.16166,-1.06257 -0.21268,-1.48167 -0.051,-0.4191 -0.2399,-1.5621 -0.41974,-2.54 -0.17984,-0.9779 -0.35168,-1.9304 -0.38187,-2.11666 -0.0302,-0.18627 -0.10669,-0.56727 -0.17,-0.84667 -0.0633,-0.2794 -0.19706,-0.94615 -0.29722,-1.48167 -0.10015,-0.53551 -0.21803,-1.08796 -0.26194,-1.22766 -0.0439,-0.1397 -0.15603,-0.57785 -0.24914,-0.97367 -0.0931,-0.39582 -0.24963,-1.00542 -0.34781,-1.35467 -0.0982,-0.34925 -0.1965,-0.73318 -0.21848,-0.85317 l -0.04,-0.21817 0.49429,0.0613 c 0.27186,0.0337 0.78004,0.1245 1.12929,0.20168 0.34925,0.0772 0.86755,0.17541 1.15177,0.21825 0.28423,0.0428 0.56998,0.0969 0.635,0.12005 0.11309,0.0403 1.87951,0.31913 3.03923,0.47972 0.30269,0.0419 0.64559,0.0905 0.762,0.10798 0.11642,0.0175 0.61172,0.0768 1.10067,0.1318 0.48895,0.055 1.1938,0.13555 1.56633,0.17895 0.37254,0.0434 0.90594,0.0976 1.18534,0.12034 3.07705,0.25106 4.64643,0.31749 7.36599,0.31176 1.65528,-0.003 2.13567,-0.0202 4.27567,-0.14887 1.77947,-0.107 1.98117,-0.12866 3.38667,-0.36367 0.30268,-0.0506 0.91228,-0.14925 1.35466,-0.21921 1.18968,-0.18812 2.8577,-0.56905 4.29684,-0.98128 0.15134,-0.0433 0.39899,-0.11308 0.55033,-0.15497 0.44928,-0.12435 0.86231,-0.2806 0.94827,-0.35873 0.0442,-0.0402 0.16044,-0.0731 0.25823,-0.0731 0.0978,0 0.21399,-0.0342 0.25823,-0.076 0.0442,-0.0418 0.37521,-0.19282 0.73549,-0.33566 1.51138,-0.59919 2.72126,-1.19665 4.12363,-2.0363 2.19345,-1.3133 3.90373,-2.62597 5.316681,-4.08063 0.24385,-0.25105 0.61501,-0.6279 0.82481,-0.83745 0.2098,-0.20955 0.38175,-0.41324 0.38213,-0.45265 0,-0.0394 0.21122,-0.31145 0.46852,-0.60452 0.25731,-0.29307 0.561,-0.66088 0.67488,-0.81734 0.37298,-0.51245 1.05863,-1.52377 1.05863,-1.56144 0,-0.0203 0.1143,-0.19463 0.254,-0.38749 0.1397,-0.19285 0.254,-0.38485 0.254,-0.42667 0,-0.0418 0.12636,-0.27422 0.2808,-0.51645 0.53575,-0.84033 1.49061,-2.90214 1.90961,-4.12344 0.36579,-1.06616 0.76447,-2.31561 0.82398,-2.58233 0.0104,-0.0466 0.13728,-0.53792 0.28197,-1.0919 0.1447,-0.55397 0.24359,-1.02671 0.21976,-1.05053 -0.0238,-0.0238 -0.009,-0.0849 0.0326,-0.13578 0.0417,-0.0509 0.0969,-0.22581 0.12253,-0.38879 0.0257,-0.16299 0.0858,-0.48684 0.13354,-0.71967 0.14349,-0.69931 0.17274,-0.88178 0.33931,-2.11667 0.30954,-2.2949 0.31678,-2.39081 0.44228,-5.8624 0.11976,-3.31278 0.0367,-5.18963 -0.36608,-8.27693 -0.13975,-1.07103 -0.27183,-2.09973 -0.29351,-2.286 -0.0217,-0.18627 -0.11093,-0.79587 -0.19832,-1.35467 -0.0874,-0.5588 -0.18422,-1.2446 -0.21515,-1.524 -0.0309,-0.2794 -0.2614,-1.51765 -0.51216,-2.75166 -0.64835,-3.19055 -1.14781,-5.21241 -1.96016,-7.93479 -0.1142,-0.38268 -0.18682,-0.72945 -0.16139,-0.7706 0.0668,-0.10806 1.45934,0.18219 1.94713,0.40583 0.22753,0.10432 0.70378,0.24261 1.05834,0.30731 0.75006,0.13687 3.18916,0.52589 3.98897,0.63621 0.30268,0.0417 0.64558,0.0902 0.762,0.10769 0.11642,0.0175 0.61172,0.0768 1.10067,0.13181 0.48895,0.055 1.1938,0.13554 1.56633,0.17894 0.37253,0.0434 0.90593,0.0975 1.18533,0.12035 3.07706,0.25105 4.64645,0.31748 7.36599,0.31176 1.65529,-0.004 2.13569,-0.0202 4.27567,-0.14888 1.77948,-0.107 1.98117,-0.12865 3.38667,-0.36366 0.30268,-0.0506 0.91228,-0.14926 1.35466,-0.21921 1.1897,-0.18812 2.85772,-0.56905 4.29684,-0.98128 0.15134,-0.0434 0.39899,-0.11309 0.55033,-0.15498 0.44929,-0.12434 0.86233,-0.2806 0.94827,-0.35873 0.0442,-0.0402 0.16044,-0.0731 0.25823,-0.0731 0.0978,0 0.214,-0.0342 0.25823,-0.076 0.0442,-0.0418 0.37524,-0.19282 0.73549,-0.33565 1.51138,-0.5992 2.72127,-1.19666 4.12364,-2.03631 2.19345,-1.3133 3.90374,-2.62597 5.3167,-4.08063 0.24384,-0.25104 0.61499,-0.6279 0.82478,-0.83745 0.20982,-0.20955 0.38177,-0.41324 0.38214,-0.45265 0,-0.0394 0.21122,-0.31144 0.46852,-0.60452 0.25731,-0.29307 0.561,-0.66087 0.67488,-0.81734 0.37298,-0.51245 1.05862,-1.52377 1.05862,-1.56143 0,-0.0203 0.1143,-0.19464 0.254,-0.38749 0.1397,-0.19285 0.254,-0.38378 0.254,-0.42429 0,-0.0405 0.10271,-0.23481 0.2282,-0.43179 0.40572,-0.63672 1.29136,-2.4161 1.71252,-3.44065 0.36436,-0.88639 1.00026,-2.76817 1.15636,-3.42187 0.0314,-0.13147 0.0887,-0.20744 0.12727,-0.16884 0.10332,0.10332 1.19504,2.57319 1.82694,4.13321 0.67101,1.65656 1.5149,3.98483 1.91799,5.29166 2.51228,8.14504 3.64858,15.48868 3.64858,23.57967 0,15.33852 -4.45497,30.10218 -12.91468,42.799 -2.99998,4.50253 -5.9005,8.03679 -9.76442,11.89784 -4.63225,4.62883 -9.39372,8.36134 -14.82918,11.62466 -9.39425,5.64003 -19.64598,9.1651 -30.555901,10.50665 -3.99502,0.49124 -8.75973,0.68539 -12.40367,0.50539 z m -30.56998,-7.63856 c -2.52112,-1.18016 -6.37817,-3.3811 -9.05402,-5.16649 -4.557,-3.04053 -8.05207,-5.90846 -11.98392,-9.83358 -3.50569,-3.49967 -6.24772,-6.77585 -8.98134,-10.73086 -1.41027,-2.04039 -2.18362,-3.28085 -2.09797,-3.36515 0.0856,-0.0842 1.08296,-0.35917 1.85423,-0.51116 0.2794,-0.0551 0.75565,-0.14889 1.05833,-0.2085 0.30269,-0.0596 0.74084,-0.14856 0.97367,-0.19765 0.8735,-0.18415 2.41728,-0.36491 3.81,-0.44608 0.79164,-0.0462 1.78224,-0.11709 2.20134,-0.15764 0.4191,-0.0406 1.23825,-0.12035 1.82033,-0.17731 1.30691,-0.12788 8.46761,-0.0228 9.35567,0.13731 0.1397,0.0252 0.5588,0.0642 0.93133,0.0867 0.37253,0.0225 0.84878,0.0755 1.05833,0.11783 0.20955,0.0423 0.78105,0.1185 1.27,0.16936 0.48895,0.0509 1.09855,0.12657 1.35467,0.16822 0.25612,0.0417 0.75142,0.11898 1.10067,0.17184 0.34925,0.0529 0.7493,0.12835 0.889,0.16776 0.1397,0.0394 0.43975,0.0969 0.66679,0.12764 0.70756,0.0959 0.69556,0.0713 1.87395,3.85241 0.18651,0.59844 0.43711,1.50628 0.81802,2.96333 0.29925,1.14469 0.41402,1.6368 0.63188,2.70933 0.11823,0.58209 0.2449,1.19169 0.28148,1.35467 0.21603,0.96241 0.51998,2.5646 0.67459,3.556 0.27865,1.78667 0.34876,2.20104 0.47995,2.83633 0.4219,2.04306 0.5673,5.33243 0.41543,9.398 -0.044,1.17761 -0.20406,3.44628 -0.24629,3.49077 -0.0101,0.0107 -0.5304,-0.22022 -1.15612,-0.51312 z m -4.4685,-6.88695 c -0.28683,-0.25551 -0.52152,-0.5031 -0.52152,-0.5502 0,-0.0694 1.0463,-1.27385 3.50625,-4.03632 l 0.17675,-0.1985 -0.42333,-0.37032 c -0.39222,-0.34311 -0.50573,-0.38987 -1.54447,-0.63633 -0.61663,-0.1463 -1.17026,-0.24717 -1.23029,-0.22413 -0.0872,0.0335 -0.40024,0.82385 -0.40024,1.01058 0,0.0249 0.32549,0.11357 0.72332,0.19706 0.39783,0.0835 0.74293,0.18351 0.76689,0.22228 0.024,0.0388 -0.57134,0.75746 -1.32288,1.59708 l -1.36643,1.5266 -0.5074,-0.44692 c -0.84185,-0.74151 -0.76199,-0.72516 -1.16883,-0.23922 -0.19612,0.23424 -0.34378,0.45765 -0.32813,0.49646 0.0157,0.0388 0.77045,0.728 1.67732,1.53151 l 1.64886,1.46093 0.41782,-0.43801 0.41783,-0.438 z m -3.57696,-3.75587 c 1.36318,-0.72663 2.63211,-2.5396 2.63211,-3.7606 0,-0.64281 -0.40735,-1.41279 -0.97491,-1.84279 -1.26962,-0.96191 -2.64535,-0.70977 -4.07851,0.74751 -0.92783,0.94344 -1.41311,1.8775 -1.41638,2.7262 -0.004,0.97524 0.51878,1.76247 1.50058,2.26069 0.38981,0.19781 0.51621,0.2194 1.11689,0.19071 0.57275,-0.0274 0.76115,-0.077 1.22022,-0.32172 z m -2.11787,-1.03743 c -0.37759,-0.25409 -0.53616,-0.70994 -0.40997,-1.17858 0.0862,-0.31999 0.1053,-0.33548 0.36064,-0.29185 0.1483,0.0254 0.78399,0.0915 1.41264,0.14707 0.62865,0.0556 1.1734,0.12804 1.21056,0.1611 0.0994,0.0885 -0.88227,0.96613 -1.31497,1.1756 -0.48361,0.2341 -0.89772,0.22973 -1.2589,-0.0133 z m 1.61731,-2.39406 c -0.53551,-0.0608 -1.04856,-0.11303 -1.1401,-0.1161 -0.13233,-0.004 -0.0716,-0.10234 0.29633,-0.47771 0.62202,-0.63462 1.10417,-0.91147 1.60044,-0.91893 0.73428,-0.0111 1.18078,0.5126 1.06954,1.25439 l -0.0586,0.39068 -0.39697,-0.0109 c -0.21834,-0.006 -0.83513,-0.0606 -1.37065,-0.12143 z m -4.68242,-0.57334 -0.55838,-0.49774 1.70319,-1.91713 c 0.93675,-1.05441 1.78021,-2.00342 1.87435,-2.10889 l 0.17116,-0.19177 -0.32429,-0.3321 c -0.38946,-0.39884 -0.50213,-0.44689 -1.69727,-0.72384 -0.51224,-0.1187 -0.98894,-0.23358 -1.05934,-0.25531 -0.0935,-0.0289 -0.18158,0.10989 -0.32684,0.51491 -0.10936,0.30493 -0.18511,0.56573 -0.16833,0.57955 0.0168,0.0138 0.36388,0.0938 0.77134,0.1778 0.40746,0.084 0.74083,0.18717 0.74083,0.22936 0,0.0422 -0.61198,0.76043 -1.35995,1.59607 l -1.35996,1.51936 -0.59094,-0.5298 c -0.32502,-0.29139 -0.62259,-0.54088 -0.66126,-0.55443 -0.0387,-0.0135 -0.23345,0.17022 -0.43283,0.40835 l -0.36251,0.43298 0.20356,0.1999 c 0.11196,0.10994 0.87031,0.79321 1.68523,1.51836 l 1.48166,1.31846 0.41448,-0.44317 0.41448,-0.44317 z m -3.93559,-3.52756 c 0.96271,-0.36393 2.05412,-1.41918 2.65967,-2.57156 0.40441,-0.76959 0.4868,-1.58585 0.22078,-2.18725 -0.24582,-0.55571 -0.72133,-1.03988 -1.31037,-1.33422 -1.15142,-0.57537 -2.33573,-0.22963 -3.57947,1.04496 -1.64316,1.68393 -1.87883,3.36227 -0.63049,4.49006 0.78164,0.70617 1.7221,0.90496 2.63988,0.55801 z m -1.50656,-1.0938 c -0.0969,-0.0416 -0.27791,-0.19645 -0.40216,-0.34413 -0.17494,-0.2079 -0.22564,-0.3578 -0.22464,-0.66417 0.002,-0.64435 -0.0483,-0.62955 1.59236,-0.46713 0.79989,0.0792 1.45435,0.17117 1.45435,0.20443 0,0.12072 -1.00125,0.98374 -1.31286,1.1316 -0.38426,0.18235 -0.8657,0.24297 -1.10705,0.1394 z m 1.37708,-2.52929 -1.25449,-0.12833 0.49249,-0.49859 c 0.95525,-0.96706 1.80754,-1.16083 2.37627,-0.54023 0.27966,0.30516 0.34856,0.65553 0.22186,1.1283 -0.06,0.22375 -0.0341,0.2232 -1.83613,0.0388 z m -4.4677,0.3514 c 0.19022,-0.21611 0.34346,-0.41613 0.34052,-0.4445 -0.003,-0.0284 -0.24582,-0.25794 -0.53974,-0.51014 l -0.5344,-0.45857 1.85207,-2.08106 c 1.01864,-1.14458 1.85083,-2.11934 1.8493,-2.16611 -0.002,-0.0468 -0.17646,-0.2336 -0.38875,-0.41517 -0.34602,-0.29598 -0.50919,-0.35963 -1.57659,-0.61491 -0.65485,-0.15662 -1.19699,-0.27476 -1.20477,-0.26252 -0.0748,0.11777 -0.36755,1.03968 -0.33912,1.06811 0.0205,0.0205 0.38543,0.11833 0.8109,0.21734 l 0.77358,0.18001 -1.369,1.54322 c -0.75295,0.84877 -1.39946,1.54322 -1.43668,1.54322 -0.0372,0 -0.32663,-0.2286 -0.64313,-0.508 -0.3165,-0.2794 -0.606,-0.508 -0.64334,-0.508 -0.086,0 -0.71133,0.7437 -0.71133,0.84599 0,0.10421 3.19257,2.95334 3.31598,2.95927 0.0542,0.003 0.25427,-0.17208 0.4445,-0.38818 z m 39.32742,-10.04096 c -0.18218,-0.0342 -0.82653,-0.1036 -1.4319,-0.15418 -2.50433,-0.20923 -3.81184,-0.35115 -5.07999,-0.55143 -0.4191,-0.0662 -1.16205,-0.17747 -1.651,-0.24731 -0.48895,-0.0698 -1.4224,-0.21986 -2.07434,-0.33339 -1.66835,-0.29057 -1.71524,-0.29923 -2.32833,-0.43021 -0.30268,-0.0647 -0.85513,-0.18132 -1.22767,-0.25922 -0.37253,-0.0779 -1.11531,-0.24564 -1.65061,-0.37277 l -0.97329,-0.23115 -0.45085,-1.43073 c -0.24797,-0.7869 -0.56018,-1.77363 -0.6938,-2.19273 -0.58839,-1.84547 -1.22098,-4.37442 -1.69428,-6.77333 -0.0367,-0.18627 -0.12695,-0.64347 -0.20044,-1.016 -0.10967,-0.55596 -0.44476,-2.46024 -0.67788,-3.85234 -0.23495,-1.40299 -0.47418,-3.3823 -0.47586,-3.937 -10e-4,-0.37253 -0.0402,-0.92498 -0.0868,-1.22766 -0.0839,-0.54439 -0.1131,-4.01112 -0.0414,-4.91067 0.0204,-0.25612 0.0596,-0.78952 0.087,-1.18533 0.13465,-1.94182 0.62132,-5.00587 0.97495,-6.13834 0.0436,-0.1397 0.13382,-0.4826 0.20044,-0.762 0.48159,-2.01993 1.28156,-3.91813 2.30172,-5.46167 0.32291,-0.48858 0.60616,-0.93052 0.62944,-0.9821 0.0474,-0.1049 0.35473,-0.52123 1.22767,-1.66285 1.15816,-1.51462 3.88741,-4.0032 5.03767,-4.59342 0.16298,-0.0836 0.41063,-0.23587 0.55033,-0.33832 0.27491,-0.20159 1.22179,-0.71633 2.49767,-1.35776 0.44238,-0.2224 0.86162,-0.45304 0.93163,-0.51252 0.25044,-0.21279 2.76205,-1.17987 4.02137,-1.5484 0.32596,-0.0954 0.93556,-0.2745 1.35466,-0.39803 0.4191,-0.12353 0.9525,-0.27406 1.18533,-0.33452 0.39793,-0.10332 0.61225,-0.14855 1.98967,-0.41984 0.30268,-0.0596 0.74083,-0.14855 0.97367,-0.19764 0.8735,-0.18415 2.41728,-0.3649 3.81,-0.44609 0.79163,-0.0461 1.78223,-0.11708 2.20133,-0.15764 0.4191,-0.0406 1.23825,-0.12034 1.82033,-0.1773 1.28181,-0.12543 8.7267,-0.0179 9.35567,0.13511 0.0931,0.0226 0.51223,0.062 0.93133,0.0874 0.4191,0.0254 0.81915,0.0653 0.889,0.0887 0.0699,0.0234 0.71755,0.11505 1.43934,0.20368 2.84228,0.34902 4.43441,0.60955 4.60863,0.75415 0.13419,0.11137 0.26527,0.4643 0.724971,1.95206 0.19424,0.62865 0.4489,1.4478 0.5659,1.82034 0.1947,0.61995 0.3226,1.08497 0.80334,2.921 0.39441,1.50632 0.3721,1.40558 1.11598,5.03766 0.16214,0.79164 0.37483,1.95369 0.47265,2.58234 0.27578,1.77246 0.34778,2.19833 0.47953,2.83633 0.32473,1.57251 0.4671,3.42896 0.46426,6.05367 -0.003,3.08605 -0.14568,6.18039 -0.34467,7.493 -0.0962,0.63444 -0.31633,2.02479 -0.43571,2.75166 -0.29511,1.79693 -1.4351,5.50881 -2.01521,6.56167 -0.12829,0.23283 -0.28444,0.55668 -0.347,0.71967 -0.0626,0.16298 -0.29695,0.57535 -0.52088,0.91638 -0.22391,0.34103 -0.40713,0.64034 -0.40713,0.66515 0,0.0248 -0.1143,0.18941 -0.254001,0.3658 -0.1397,0.17639 -0.254,0.3562 -0.254,0.39959 0,0.0434 -0.0952,0.16838 -0.21166,0.27774 -0.11642,0.10937 -0.21167,0.2346 -0.21167,0.27831 0,0.0437 -0.0965,0.19898 -0.21451,0.34508 -0.11799,0.14608 -0.41237,0.51326 -0.65419,0.81595 -0.8167,1.02225 -2.39941,2.49919 -3.98991,3.72327 -0.66709,0.51339 -1.56425,1.01951 -2.71906,1.53388 -0.4191,0.18668 -1.0668,0.48783 -1.43933,0.66923 -0.37253,0.18141 -0.86783,0.38524 -1.10067,0.45296 -0.23283,0.0677 -0.74718,0.24312 -1.143,0.38977 -0.62366,0.23105 -1.45638,0.46657 -2.75166,0.77824 -1.37181,0.33009 -3.85504,0.7028 -5.50334,0.826 -3.47845,0.26 -7.44864,0.33481 -8.38943,0.1581 z m 2.01062,-3.25443 c -0.28683,-0.2555 -0.52152,-0.50309 -0.52152,-0.55019 0,-0.0694 1.0463,-1.27386 3.50625,-4.03633 l 0.17675,-0.19849 -0.42333,-0.37032 c -0.39222,-0.34311 -0.50573,-0.38987 -1.54447,-0.63633 -0.61663,-0.14631 -1.17026,-0.24717 -1.23029,-0.22413 -0.0872,0.0335 -0.40024,0.82385 -0.40024,1.01058 0,0.0249 0.32549,0.11357 0.72332,0.19706 0.39783,0.0835 0.74293,0.18351 0.76689,0.22228 0.024,0.0388 -0.57134,0.75745 -1.32288,1.59708 l -1.36643,1.52659 -0.5074,-0.44691 c -0.84185,-0.74151 -0.76199,-0.72516 -1.16883,-0.23923 -0.19612,0.23424 -0.34378,0.45766 -0.32812,0.49647 0.0157,0.0388 0.77044,0.72799 1.67731,1.5315 l 1.64886,1.46094 0.41782,-0.43801 0.41783,-0.43801 z m 16.06787,-2.65584 0.35989,-0.4268 -0.39464,-0.34738 c -0.21705,-0.19106 -0.46762,-0.40857 -0.55682,-0.48335 -0.15555,-0.13043 -0.0859,-0.22179 1.70445,-2.23631 1.02664,-1.15519 1.85465,-2.12906 1.84001,-2.16418 -0.0146,-0.0351 -0.18821,-0.20853 -0.38573,-0.38537 -0.31509,-0.28211 -0.49676,-0.3565 -1.48167,-0.60671 -0.6174,-0.15683 -1.16667,-0.28605 -1.2206,-0.28712 -0.096,-0.002 -0.4855,1.00903 -0.41568,1.07886 0.0195,0.0195 0.37041,0.11006 0.77984,0.20128 0.40944,0.0912 0.7519,0.17346 0.76101,0.18272 0.0279,0.0283 -2.67169,3.0627 -2.7471,3.08784 -0.0388,0.0129 -0.33052,-0.20604 -0.64832,-0.48658 -0.31779,-0.28054 -0.60233,-0.51008 -0.63229,-0.51008 -0.10848,0 -0.78575,0.74819 -0.75564,0.83477 0.0457,0.13137 3.23251,2.96495 3.34082,2.97049 0.0509,0.003 0.25452,-0.18733 0.45247,-0.42208 z m -20.3255,-0.29096 c 0.1922,-0.20851 0.34972,-0.40854 0.35004,-0.4445 2.7e-4,-0.036 -0.23491,-0.27724 -0.52276,-0.53615 l -0.52336,-0.47076 1.87915,-2.11157 1.87915,-2.11158 -0.42318,-0.38604 c -0.40368,-0.36826 -0.47667,-0.39855 -1.58401,-0.65715 -0.63845,-0.1491 -1.19088,-0.24105 -1.22761,-0.20431 -0.0367,0.0367 -0.14095,0.28235 -0.23159,0.54583 l -0.16482,0.47904 0.79789,0.18176 c 0.43883,0.1 0.79788,0.19538 0.79788,0.21201 0,0.0166 -0.62148,0.73105 -1.38106,1.58762 l -1.38106,1.55739 -0.58744,-0.53397 c -0.32309,-0.29368 -0.63152,-0.53499 -0.68539,-0.53623 -0.0539,-10e-4 -0.25596,0.18645 -0.44909,0.41712 l -0.35114,0.41941 0.32209,0.28815 c 1.7624,1.57673 3.03214,2.68304 3.07938,2.68304 0.0316,0 0.21473,-0.17059 0.40693,-0.37911 z m -4.5023,-4.8139 -0.55839,-0.49773 1.70319,-1.91714 c 0.93676,-1.05441 1.78021,-2.00341 1.87435,-2.10888 l 0.17116,-0.19177 -0.32429,-0.33211 c -0.38946,-0.39884 -0.50212,-0.44689 -1.69727,-0.72383 -0.51223,-0.1187 -0.98894,-0.23358 -1.05934,-0.25531 -0.0935,-0.0289 -0.18158,0.10989 -0.32684,0.51491 -0.10936,0.30493 -0.18511,0.56572 -0.16833,0.57954 0.0168,0.0138 0.36388,0.0938 0.77134,0.1778 0.40746,0.084 0.74084,0.18718 0.74084,0.22937 0,0.0422 -0.61198,0.76043 -1.35996,1.59607 l -1.35996,1.51936 -0.59094,-0.5298 c -0.32502,-0.29139 -0.62258,-0.54089 -0.66126,-0.55443 -0.0387,-0.0135 -0.23345,0.17021 -0.43283,0.40834 l -0.36251,0.43298 0.20356,0.19991 c 0.11196,0.10994 0.87031,0.79321 1.68523,1.51836 l 1.48167,1.31845 0.41448,-0.44317 0.41448,-0.44317 z m 21.00384,0.53012 c 0.96377,-0.47234 2.08821,-1.70632 2.52702,-2.77319 0.4033,-0.98052 0.19574,-1.9603 -0.57168,-2.69871 -1.3009,-1.2517 -3.04748,-0.91107 -4.58661,0.89451 -0.86642,1.01643 -1.24676,2.01972 -1.07652,2.83976 0.18051,0.86953 0.90437,1.66451 1.7797,1.9546 0.55388,0.18355 1.27689,0.10219 1.92809,-0.21697 z m -2.14823,-1.21298 c -0.25922,-0.25922 -0.28786,-0.33531 -0.28786,-0.76466 0,-0.3508 0.0344,-0.48998 0.13012,-0.52671 0.13185,-0.0506 2.12428,0.11071 2.65807,0.2152 l 0.29053,0.0569 -0.49535,0.48363 c -0.60172,0.58749 -1.06107,0.82354 -1.60257,0.82354 -0.34778,0 -0.44579,-0.0407 -0.69294,-0.28787 z m 1.98215,-2.24374 c -0.73058,-0.0765 -1.35923,-0.17047 -1.397,-0.20875 -0.0978,-0.0992 0.81629,-0.92693 1.2617,-1.14256 0.55075,-0.2666 1.08208,-0.24394 1.40748,0.06 0.14196,0.13261 0.2836,0.34265 0.31474,0.46676 0.0773,0.30818 -0.0328,0.98812 -0.15796,0.97457 -0.0554,-0.006 -0.69839,-0.0735 -1.42896,-0.15004 z m -4.15775,-0.41786 c 1.05376,-0.53436 2.18333,-1.84486 2.56612,-2.9772 0.3169,-0.93739 0.11577,-1.75698 -0.60217,-2.45371 -1.04055,-1.00983 -2.36799,-1.02546 -3.67455,-0.0433 -1.4992,1.12701 -2.39752,2.99579 -1.95332,4.06349 0.31864,0.7659 0.88543,1.32423 1.63689,1.61247 0.52657,0.20198 1.40283,0.11474 2.02703,-0.20178 z m -1.89943,-0.98213 c -0.49543,-0.2225 -0.73252,-0.82961 -0.53097,-1.3597 0.0948,-0.24945 -0.10175,-0.24833 2.1476,-0.0123 l 0.9198,0.0965 -0.45356,0.453 c -0.79852,0.79754 -1.51144,1.07903 -2.08287,0.8224 z m 1.45883,-2.47843 c -0.65193,-0.0697 -1.20438,-0.14583 -1.22766,-0.16925 -0.0713,-0.0717 1.00042,-1.01403 1.33231,-1.17153 0.17153,-0.0814 0.46581,-0.16355 0.65395,-0.18257 0.69739,-0.0705 1.2263,0.54998 1.08443,1.27213 -0.0649,0.33033 -0.0888,0.35438 -0.36358,0.36573 -0.16176,0.007 -0.82751,-0.0448 -1.47945,-0.11451 z m -20.175,3.27746 c 0.9627,-0.36393 2.05411,-1.41918 2.65967,-2.57155 0.40441,-0.7696 0.48679,-1.58585 0.22077,-2.18725 -0.24582,-0.55571 -0.72132,-1.03988 -1.31037,-1.33422 -1.15141,-0.57537 -2.33572,-0.22964 -3.57946,1.04496 -1.64316,1.68393 -1.87883,3.36227 -0.6305,4.49006 0.78164,0.70616 1.7221,0.90495 2.63989,0.558 z m -1.50657,-1.0938 c -0.0969,-0.0416 -0.2779,-0.19645 -0.40216,-0.34412 -0.17494,-0.2079 -0.22564,-0.35781 -0.22464,-0.66417 0.002,-0.64435 -0.0483,-0.62955 1.59237,-0.46713 0.79989,0.0792 1.45434,0.17117 1.45434,0.20443 0,0.12071 -1.00125,0.98374 -1.31286,1.1316 -0.38426,0.18235 -0.8657,0.24297 -1.10705,0.13939 z m 1.37708,-2.52929 -1.25449,-0.12832 0.49249,-0.49859 c 0.95525,-0.96706 1.80754,-1.16083 2.37628,-0.54023 0.27966,0.30516 0.34855,0.65553 0.22185,1.1283 -0.06,0.22375 -0.0341,0.2232 -1.83613,0.0388 z m 38.42316,1.46456 c 0.78239,-0.39032 1.870261,-1.51599 2.303981,-2.38404 0.62123,-1.2433 0.557,-2.07369 -0.22669,-2.93118 -0.59309,-0.64893 -1.265201,-0.94382 -2.026531,-0.88915 -1.27693,0.0917 -2.69947,1.22986 -3.46328,2.77095 -0.28242,0.56982 -0.31281,0.69732 -0.31281,1.31234 0,0.58832 0.0313,0.73442 0.2296,1.07173 0.28566,0.48594 0.73105,0.8827 1.28886,1.14815 0.61903,0.29458 1.49715,0.25527 2.20687,-0.0988 z m -1.86267,-0.97034 c -0.0931,-0.0385 -0.26458,-0.17262 -0.381,-0.29799 -0.17682,-0.19043 -0.21119,-0.30974 -0.20877,-0.72477 0.002,-0.27325 0.0225,-0.51637 0.0463,-0.54026 0.0656,-0.0656 2.95643,0.22946 2.95643,0.30172 0,0.0345 -0.19397,0.25362 -0.43103,0.48698 -0.69899,0.68805 -1.46604,0.98772 -1.98197,0.77432 z m 1.35925,-2.51455 c -0.60284,-0.0654 -1.11719,-0.14049 -1.143,-0.1668 -0.0258,-0.0263 0.17945,-0.25893 0.45611,-0.51692 0.51741,-0.4825 1.20777,-0.86734 1.55852,-0.86879 0.31243,-0.001 0.726311,0.2329 0.884341,0.50044 0.14309,0.24221 0.19213,0.79994 0.0931,1.05813 -0.0619,0.16136 -0.313941,0.16054 -1.849031,-0.006 z m -22.27502,1.79099 -0.54929,-0.508 1.86893,-2.10564 1.86893,-2.10564 -0.19573,-0.2098 c -0.38763,-0.4155 -0.69475,-0.55914 -1.79111,-0.83766 -0.61268,-0.15565 -1.13789,-0.28389 -1.16713,-0.28496 -0.0875,-0.003 -0.44028,1.01447 -0.37451,1.08029 0.0334,0.0334 0.3961,0.13694 0.80605,0.23008 l 0.74536,0.16933 -1.3996,1.58416 -1.3996,1.58416 -0.61117,-0.54699 c -0.33614,-0.30085 -0.63406,-0.547 -0.66204,-0.547 -0.0912,0 -0.73002,0.71683 -0.7322,0.82158 -0.001,0.0561 0.75036,0.76946 1.67005,1.58534 l 1.67217,1.48341 0.40009,-0.44233 0.4001,-0.44233 z m -20.11242,0.58075 c 0.19023,-0.21611 0.34346,-0.41613 0.34053,-0.4445 -0.003,-0.0284 -0.24582,-0.25794 -0.53974,-0.51015 l -0.53441,-0.45856 1.85208,-2.08106 c 1.01864,-1.14459 1.85082,-2.11934 1.84929,-2.16611 -0.002,-0.0468 -0.17646,-0.2336 -0.38874,-0.41518 -0.34603,-0.29598 -0.5092,-0.35962 -1.5766,-0.6149 -0.65485,-0.15662 -1.19699,-0.27476 -1.20476,-0.26252 -0.0748,0.11777 -0.36756,1.03968 -0.33913,1.06811 0.0205,0.0205 0.38544,0.11833 0.8109,0.21734 l 0.77358,0.18001 -1.369,1.54322 c -0.75295,0.84877 -1.39945,1.54322 -1.43667,1.54322 -0.0372,0 -0.32664,-0.2286 -0.64313,-0.508 -0.3165,-0.2794 -0.60601,-0.508 -0.64335,-0.508 -0.086,0 -0.71132,0.7437 -0.71132,0.84599 0,0.1042 3.19256,2.95334 3.31597,2.95927 0.0542,0.003 0.25428,-0.17208 0.4445,-0.38818 z m 38.51129,-2.74597 c 0.96377,-0.47234 2.08821,-1.70632 2.52702,-2.77319 0.40329,-0.98052 0.19573,-1.96031 -0.57169,-2.69871 -1.3009,-1.2517 -3.04747,-0.91107 -4.5866,0.89451 -0.86643,1.01642 -1.24677,2.01972 -1.07653,2.83976 0.18052,0.86952 0.90438,1.66451 1.7797,1.95459 0.55388,0.18355 1.27689,0.1022 1.9281,-0.21696 z m -2.14823,-1.21298 c -0.25922,-0.25922 -0.28787,-0.33531 -0.28787,-0.76466 0,-0.3508 0.0344,-0.48998 0.13013,-0.52672 0.13185,-0.0506 2.12428,0.11072 2.65806,0.21521 l 0.29054,0.0569 -0.49535,0.48363 c -0.60173,0.58749 -1.06108,0.82354 -1.60257,0.82354 -0.34778,0 -0.44579,-0.0407 -0.69294,-0.28787 z m 1.98214,-2.24374 c -0.73057,-0.0765 -1.35922,-0.17047 -1.397,-0.20876 -0.0978,-0.0991 0.8163,-0.92692 1.26171,-1.14255 0.55074,-0.26661 1.08208,-0.24395 1.40748,0.06 0.14196,0.1326 0.28359,0.34265 0.31473,0.46675 0.0773,0.30819 -0.0328,0.98813 -0.15795,0.97457 -0.0554,-0.006 -0.69839,-0.0735 -1.42897,-0.15003 z m -21.86386,1.94206 c 1.4771,-0.72716 2.83217,-2.67842 2.72847,-3.9289 -0.0732,-0.88298 -0.65552,-1.64478 -1.58114,-2.06854 -1.23317,-0.56457 -2.65491,0.0133 -3.91617,1.59165 -1.15006,1.43923 -1.29153,2.7491 -0.40562,3.75554 0.88646,1.00707 1.99034,1.23319 3.17446,0.65025 z m -1.69629,-0.91075 c -0.52268,-0.13529 -0.85674,-0.66914 -0.76362,-1.22032 0.0315,-0.18655 0.10833,-0.35875 0.17069,-0.38268 0.0624,-0.0239 0.69674,0.0169 1.40973,0.0907 0.71299,0.0738 1.3523,0.13417 1.42069,0.13408 0.19422,0 -0.84623,1.00234 -1.22501,1.18047 -0.3915,0.18409 -0.77545,0.25908 -1.01248,0.19773 z m 1.32998,-2.54624 c -0.71015,-0.0721 -1.29117,-0.15859 -1.29117,-0.19217 0,-0.0336 0.22546,-0.26978 0.50102,-0.52491 0.9297,-0.86074 1.68962,-1.05161 2.24508,-0.56392 0.33321,0.29257 0.43964,0.65306 0.32466,1.0997 -0.0917,0.35616 -0.0747,0.35443 -1.77959,0.1813 z m 17.50544,1.83474 0.36578,-0.43379 -0.54303,-0.48881 -0.54303,-0.48883 0.17619,-0.19922 c 0.0969,-0.10957 0.92557,-1.04577 1.8415,-2.08045 0.91592,-1.03466 1.66531,-1.91694 1.66531,-1.96061 0,-0.0437 -0.18097,-0.22926 -0.40216,-0.41245 -0.34827,-0.28841 -0.54654,-0.3689 -1.47945,-0.60055 -0.5925,-0.14712 -1.13237,-0.26749 -1.19969,-0.26749 -0.0727,0 -0.1818,0.18061 -0.26856,0.4445 -0.0804,0.24447 -0.16204,0.48776 -0.18147,0.54064 -0.022,0.0599 0.21404,0.14917 0.62616,0.2368 0.36383,0.0773 0.7263,0.16744 0.80549,0.20019 0.11631,0.0481 -0.11621,0.35242 -1.20989,1.58353 -0.74462,0.8382 -1.38848,1.524 -1.43078,1.524 -0.0423,0 -0.3432,-0.23842 -0.66868,-0.52982 l -0.59176,-0.52981 -0.38431,0.40281 c -0.21137,0.22155 -0.38278,0.44092 -0.38091,0.48749 0.004,0.0896 3.28351,3.00567 3.38068,3.00567 0.0312,0 0.22142,-0.19521 0.42261,-0.4338 z m -21.46361,-2.23531 c 0.71101,-0.34872 1.84795,-1.49993 2.2556,-2.28389 0.35479,-0.68232 0.52364,-1.37128 0.44382,-1.81094 -0.13589,-0.74849 -0.70839,-1.47438 -1.4891,-1.8881 -0.50106,-0.26551 -1.54541,-0.27347 -2.09932,-0.016 -0.94883,0.44106 -1.93897,1.43535 -2.50832,2.51882 -0.40441,0.76959 -0.4868,1.58585 -0.22078,2.18725 0.24618,0.55652 0.72097,1.03936 1.31801,1.34037 0.47263,0.23827 0.58226,0.26029 1.15709,0.23243 0.48895,-0.0237 0.75185,-0.0881 1.143,-0.27995 z m -1.86957,-0.96893 c -0.0969,-0.0392 -0.28198,-0.19696 -0.41122,-0.35055 -0.20725,-0.2463 -0.23059,-0.33216 -0.1978,-0.72757 0.0204,-0.24657 0.0553,-0.46644 0.0775,-0.4886 0.0427,-0.0427 2.88266,0.21533 2.9465,0.26765 0.0206,0.0168 -0.16995,0.24057 -0.42333,0.49716 -0.7152,0.72423 -1.45115,1.02056 -1.99162,0.80191 z m 1.36616,-2.51328 c -0.60285,-0.0654 -1.1172,-0.14049 -1.143,-0.16681 -0.0926,-0.0944 0.97146,-0.99305 1.41794,-1.19745 0.59838,-0.27395 0.972,-0.22201 1.35031,0.18774 0.22424,0.24286 0.27516,0.36748 0.27516,0.67333 0,0.20643 -0.0231,0.43559 -0.0514,0.50925 -0.0619,0.16136 -0.31394,0.16053 -1.84902,-0.006 z m 17.43364,0.94432 -0.54929,-0.508 1.86893,-2.10565 1.86893,-2.10563 -0.19573,-0.2098 c -0.38763,-0.41551 -0.69476,-0.55914 -1.79111,-0.83766 -0.61268,-0.15565 -1.13789,-0.28389 -1.16714,-0.28497 -0.0875,-0.003 -0.44027,1.01447 -0.3745,1.0803 0.0334,0.0334 0.3961,0.13694 0.80605,0.23007 l 0.74536,0.16934 -1.3996,1.58416 -1.3996,1.58416 -0.61117,-0.54699 c -0.33614,-0.30086 -0.63406,-0.547 -0.66204,-0.547 -0.0912,0 -0.73003,0.71683 -0.7322,0.82158 -0.001,0.0561 0.75035,0.76946 1.67005,1.58533 l 1.67216,1.48341 0.4001,-0.44232 0.40009,-0.44233 z m -21.55109,-1.016 c -2e-5,-0.0466 -0.22455,-0.27517 -0.49897,-0.508 -0.27441,-0.23284 -0.50154,-0.44465 -0.50472,-0.47068 -0.003,-0.026 0.83509,-0.99318 1.86283,-2.14919 l 1.86861,-2.10184 -0.40811,-0.36285 c -0.3701,-0.32904 -0.50817,-0.38793 -1.48235,-0.63217 -0.59082,-0.14813 -1.1371,-0.27502 -1.21394,-0.28197 -0.0986,-0.009 -0.19685,0.14356 -0.33375,0.51783 -0.10671,0.29176 -0.17004,0.5449 -0.14072,0.56255 0.0293,0.0177 0.38722,0.10119 0.79533,0.18565 0.40811,0.0845 0.73196,0.18138 0.71967,0.21534 -0.0123,0.034 -0.62942,0.74761 -1.37139,1.58586 l -1.34903,1.52409 -0.31011,-0.24561 c -0.17056,-0.13509 -0.36021,-0.30598 -0.42145,-0.37977 -0.0612,-0.0738 -0.21757,-0.2098 -0.34742,-0.30226 l -0.23609,-0.16811 -0.3641,0.39499 c -0.20025,0.21725 -0.36409,0.4268 -0.36409,0.46566 0,0.0389 0.75931,0.74278 1.68737,1.56424 l 1.68737,1.49357 0.36254,-0.41133 c 0.1994,-0.22624 0.36253,-0.44944 0.36252,-0.496 z m 36.34205,-2.21597 c -0.28684,-0.25551 -0.52152,-0.5031 -0.52152,-0.5502 0,-0.0694 1.046291,-1.27386 3.506241,-4.03633 l 0.17676,-0.19849 -0.42334,-0.37032 c -0.39222,-0.34311 -0.50572,-0.38987 -1.54447,-0.63633 -0.61663,-0.14631 -1.170251,-0.24716 -1.230291,-0.22413 -0.0872,0.0335 -0.40024,0.82385 -0.40024,1.01058 0,0.0249 0.3255,0.11357 0.723331,0.19706 0.39782,0.0835 0.74292,0.18351 0.76688,0.22228 0.024,0.0388 -0.57134,0.75745 -1.322871,1.59708 l -1.36644,1.52659 -0.50739,-0.44691 c -0.84186,-0.74151 -0.762,-0.72516 -1.16884,-0.23922 -0.19612,0.23423 -0.34378,0.45765 -0.32812,0.49646 0.0156,0.0388 0.77044,0.72799 1.67731,1.5315 l 1.64886,1.46094 0.417831,-0.43801 0.41782,-0.43801 z m -18.42204,-0.44791 c 1.4771,-0.72717 2.83217,-2.67842 2.72847,-3.9289 -0.0732,-0.88299 -0.65553,-1.64478 -1.58114,-2.06855 -1.23317,-0.56456 -2.65492,0.0133 -3.91617,1.59166 -1.15006,1.43923 -1.29154,2.74909 -0.40562,3.75554 0.88645,1.00707 1.99034,1.23319 3.17446,0.65025 z m -1.69629,-0.91075 c -0.52269,-0.13529 -0.85674,-0.66914 -0.76362,-1.22033 0.0315,-0.18654 0.10833,-0.35874 0.17069,-0.38267 0.0624,-0.0239 0.69674,0.0169 1.40972,0.0907 0.713,0.0738 1.35231,0.13417 1.4207,0.13408 0.19421,0 -0.84623,1.00234 -1.22502,1.18046 -0.3915,0.1841 -0.77544,0.25909 -1.01247,0.19774 z m 1.32997,-2.54625 c -0.71014,-0.0721 -1.29116,-0.15859 -1.29116,-0.19217 0,-0.0336 0.22545,-0.26978 0.50101,-0.5249 0.9297,-0.86074 1.68963,-1.05162 2.24508,-0.56392 0.33322,0.29257 0.43964,0.65306 0.32466,1.09969 -0.0917,0.35616 -0.0747,0.35444 -1.77959,0.1813 z m -22.21387,2.68437 0.37095,-0.43074 -0.54029,-0.49035 c -0.50836,-0.46137 -0.53232,-0.4997 -0.40553,-0.64871 0.0741,-0.0871 0.90279,-1.02701 1.8415,-2.0887 0.93871,-1.06169 1.70675,-1.9606 1.70675,-1.99758 0,-0.037 -0.18098,-0.21902 -0.40217,-0.40452 -0.3508,-0.2942 -0.53975,-0.37159 -1.47945,-0.60592 -0.5925,-0.14775 -1.13236,-0.26864 -1.19969,-0.26864 -0.0727,0 -0.1818,0.18061 -0.26856,0.4445 -0.0804,0.24448 -0.16203,0.48777 -0.18147,0.54065 -0.022,0.0599 0.21404,0.14917 0.62616,0.23679 0.36383,0.0774 0.72448,0.16744 0.80145,0.20019 0.11145,0.0474 -0.13464,0.36976 -1.2089,1.58354 -0.74186,0.8382 -1.37633,1.5332 -1.40994,1.54446 -0.0336,0.0113 -0.34076,-0.22834 -0.68256,-0.53243 l -0.62145,-0.55288 -0.35221,0.40013 c -0.19372,0.22006 -0.35221,0.44404 -0.35221,0.49772 0,0.0949 3.22874,3.00337 3.33398,3.00329 0.029,-3e-5 0.21961,-0.19388 0.42364,-0.4308 z m 17.68599,-2.35981 0.36161,-0.41991 -0.36161,-0.33289 c -0.19889,-0.18309 -0.44761,-0.40369 -0.55272,-0.49022 l -0.1911,-0.15733 1.86327,-2.09973 c 1.0248,-1.15486 1.85968,-2.12641 1.85529,-2.159 -0.004,-0.0326 -0.17475,-0.2061 -0.37859,-0.38555 -0.32529,-0.28637 -0.50814,-0.36121 -1.49486,-0.61187 -0.61833,-0.15708 -1.16676,-0.28648 -1.21873,-0.28755 -0.0975,-0.002 -0.50079,0.9973 -0.43074,1.06736 0.0216,0.0216 0.38259,0.12324 0.80216,0.22583 l 0.76285,0.18651 -1.34779,1.524 c -0.74128,0.8382 -1.38088,1.53539 -1.42133,1.54932 -0.0404,0.0139 -0.33318,-0.20516 -0.6505,-0.48684 -0.31733,-0.28168 -0.6071,-0.51215 -0.64394,-0.51215 -0.10874,0 -0.70155,0.69193 -0.70155,0.81884 0,0.12311 3.15708,2.97847 3.302,2.98643 0.0466,0.003 0.24739,-0.18431 0.44628,-0.41525 z m 19.73926,-0.17552 c 1.3632,-0.72663 2.63212,-2.5396 2.63212,-3.76061 0,-0.6428 -0.40735,-1.41278 -0.97491,-1.84278 -1.26961,-0.96191 -2.64535,-0.70977 -4.0785,0.7475 -0.92783,0.94344 -1.41312,1.87751 -1.41639,2.72621 -0.004,0.97523 0.51879,1.76247 1.50058,2.26068 0.38981,0.19782 0.51621,0.2194 1.11689,0.19072 0.57275,-0.0274 0.76115,-0.077 1.22021,-0.32172 z m -2.11786,-1.03743 c -0.37759,-0.25409 -0.53615,-0.70995 -0.40997,-1.17858 0.0862,-0.31999 0.10531,-0.33548 0.36064,-0.29185 0.1483,0.0254 0.784,0.0915 1.41265,0.14707 0.62865,0.0556 1.1734,0.12804 1.21055,0.1611 0.0994,0.0885 -0.88227,0.96613 -1.31496,1.1756 -0.48361,0.2341 -0.89773,0.22972 -1.25891,-0.0133 z m 1.61732,-2.39406 c -0.53552,-0.0608 -1.04857,-0.11303 -1.14011,-0.1161 -0.13232,-0.004 -0.0716,-0.10235 0.29634,-0.47772 0.62201,-0.63461 1.10417,-0.91146 1.60043,-0.91893 0.73428,-0.0111 1.18078,0.51261 1.06955,1.2544 l -0.0586,0.39068 -0.39699,-0.0109 c -0.21834,-0.006 -0.83513,-0.0606 -1.37064,-0.12143 z m -4.68243,-0.57334 -0.55837,-0.49774 1.70318,-1.91713 c 0.93676,-1.05442 1.78021,-2.00343 1.87435,-2.1089 l 0.17116,-0.19176 -0.32429,-0.33211 c -0.38946,-0.39884 -0.50212,-0.44689 -1.69727,-0.72383 -0.51223,-0.1187 -0.98893,-0.23359 -1.05934,-0.25531 -0.0935,-0.0289 -0.18159,0.10989 -0.32684,0.51491 -0.10935,0.30493 -0.18511,0.56572 -0.16833,0.57954 0.0168,0.0138 0.36388,0.0938 0.77134,0.1778 0.40746,0.084 0.74084,0.18718 0.74084,0.22937 0,0.0422 -0.61198,0.76042 -1.35996,1.59607 l -1.35996,1.51936 -0.59094,-0.5298 c -0.32502,-0.29139 -0.62259,-0.54089 -0.66126,-0.55443 -0.0387,-0.0136 -0.23345,0.17021 -0.43283,0.40835 l -0.36251,0.43298 0.20356,0.1999 c 0.11196,0.10994 0.87031,0.7932 1.68523,1.51836 l 1.48167,1.31846 0.41447,-0.44318 0.41449,-0.44317 z m -18.38202,-0.3934 c 1.41488,-0.69334 2.74599,-2.55184 2.74362,-3.83065 -0.002,-0.86032 -0.67084,-1.78816 -1.59297,-2.20849 -1.16942,-0.53305 -2.7213,0.10053 -3.88307,1.58533 -0.55545,0.70988 -0.74604,1.06647 -0.91887,1.71913 -0.16964,0.64061 -0.096,1.16376 0.24345,1.72995 0.73476,1.22551 2.12242,1.63463 3.40784,1.00473 z m -2.07258,-1.15004 c -0.14191,-0.11941 -0.29186,-0.33967 -0.33322,-0.48946 -0.0968,-0.35046 -0.028,-0.81753 0.12923,-0.87787 0.11206,-0.043 1.66875,0.0795 2.55236,0.20085 l 0.36767,0.0505 -0.48075,0.48583 c -0.84319,0.85207 -1.68839,1.09034 -2.23529,0.63015 z m 1.8377,-2.3145 c -0.73057,-0.0765 -1.35087,-0.1617 -1.37842,-0.18925 -0.0829,-0.0829 0.98149,-1.01725 1.34892,-1.18415 0.39684,-0.18026 0.93456,-0.19994 1.21476,-0.0444 0.28011,0.15543 0.52286,0.56107 0.52351,0.87478 7.9e-4,0.35537 -0.13742,0.70675 -0.27252,0.69311 -0.0594,-0.006 -0.70567,-0.0735 -1.43625,-0.15004 z m -4.65072,0.32278 0.37096,-0.43075 -0.54029,-0.49035 c -0.50836,-0.46138 -0.53232,-0.49971 -0.40553,-0.64871 0.0741,-0.0871 0.90279,-1.02702 1.8415,-2.0887 0.93871,-1.06169 1.70674,-1.9606 1.70674,-1.99758 0,-0.037 -0.18098,-0.21902 -0.40217,-0.40452 -0.3508,-0.2942 -0.53975,-0.37159 -1.47944,-0.60592 -0.5925,-0.14775 -1.13236,-0.26864 -1.19969,-0.26864 -0.0727,0 -0.1818,0.18061 -0.26856,0.4445 -0.0804,0.24447 -0.16204,0.48776 -0.18148,0.54064 -0.022,0.0599 0.21405,0.14917 0.62617,0.2368 0.36383,0.0774 0.72448,0.16744 0.80144,0.20019 0.11145,0.0474 -0.13463,0.36976 -1.20889,1.58353 -0.74186,0.8382 -1.37633,1.53321 -1.40994,1.54446 -0.0336,0.0113 -0.34076,-0.22833 -0.68256,-0.53242 l -0.62146,-0.55289 -0.35221,0.40013 c -0.19371,0.22008 -0.35221,0.44405 -0.35221,0.49772 0,0.0949 3.22875,3.00338 3.33399,3.0033 0.029,-3e-5 0.21961,-0.19388 0.42363,-0.43079 z m 19.33204,0.008 c 0.9627,-0.36393 2.05411,-1.41918 2.65967,-2.57156 0.40441,-0.76959 0.48679,-1.58585 0.22076,-2.18724 -0.24581,-0.55572 -0.72131,-1.03988 -1.31036,-1.33423 -1.15141,-0.57537 -2.33572,-0.22963 -3.57946,1.04497 -1.64316,1.68392 -1.87883,3.36226 -0.6305,4.49006 0.78164,0.70616 1.7221,0.90495 2.63989,0.558 z m -1.50657,-1.0938 c -0.0969,-0.0416 -0.2779,-0.19645 -0.40216,-0.34413 -0.17494,-0.2079 -0.22564,-0.3578 -0.22463,-0.66417 0.002,-0.64434 -0.0483,-0.62954 1.59236,-0.46713 0.79988,0.0792 1.45434,0.17118 1.45434,0.20443 0,0.12072 -1.00125,0.98374 -1.31286,1.13161 -0.38426,0.18234 -0.8657,0.24296 -1.10705,0.13939 z m 1.37709,-2.52929 -1.2545,-0.12833 0.4925,-0.49859 c 0.95524,-0.96706 1.80754,-1.16082 2.37627,-0.54023 0.27966,0.30516 0.34855,0.65553 0.22185,1.12831 -0.06,0.22374 -0.034,0.22319 -1.83612,0.0388 z m -4.46771,0.3514 c 0.19023,-0.2161 0.34346,-0.41613 0.34053,-0.4445 -0.003,-0.0284 -0.24582,-0.25793 -0.53974,-0.51014 l -0.53441,-0.45857 1.85208,-2.08106 c 1.01864,-1.14458 1.85082,-2.11933 1.84929,-2.1661 -0.002,-0.0468 -0.17646,-0.23361 -0.38874,-0.41519 -0.34603,-0.29597 -0.5092,-0.35961 -1.5766,-0.6149 -0.65485,-0.15662 -1.19699,-0.27475 -1.20476,-0.26252 -0.0748,0.11777 -0.36756,1.03969 -0.33913,1.06811 0.0205,0.0205 0.38544,0.11834 0.8109,0.21734 l 0.77358,0.18001 -1.369,1.54322 c -0.75295,0.84877 -1.39945,1.54322 -1.43667,1.54322 -0.0372,0 -0.32663,-0.2286 -0.64313,-0.508 -0.3165,-0.2794 -0.60601,-0.508 -0.64335,-0.508 -0.086,0 -0.71132,0.7437 -0.71132,0.84599 0,0.10421 3.19256,2.95334 3.31597,2.95927 0.0542,0.003 0.25428,-0.17207 0.4445,-0.38818 z m -63.94303,43.62692 c -0.4509,-0.68816 -2.24553,-4.64187 -3.25426,-7.1694 -1.92678,-4.82782 -3.41542,-10.18114 -4.33115,-15.57527 -0.82768,-4.8755 -1.2321105,-10.81003 -1.0366,-15.21112 0.12369,-2.78447 0.28948,-4.96388 0.52388,-6.88688 1.61816,-13.27506 6.51278,-25.64866 14.44584,-36.51909 2.20095,-3.01589 4.7462,-5.96441 7.68894,-8.90715 2.24936,-2.24936 4.06068,-3.87969 6.37256,-5.73582 7.82564,-6.28292 17.15731,-11.14017 26.61423,-13.85303 10.66044,-3.05811 21.1982,-3.85347 31.99745,-2.41509 4.544881,0.60535 8.919441,1.59576 13.652501,3.09097 0.73343,0.2317 1.3335,0.44158 1.3335,0.46641 0,0.0248 -0.27622,0.17678 -0.61383,0.33766 -0.33761,0.16088 -0.67098,0.32863 -0.74083,0.37276 -0.0699,0.0441 -0.37465,0.19687 -0.67734,0.3394 -0.30268,0.14253 -0.66845,0.33029 -0.81281,0.41726 -0.14437,0.087 -0.52537,0.29914 -0.84667,0.47151 -0.3213,0.17238 -0.78257,0.46209 -1.02505,0.64381 -0.24248,0.18172 -0.47108,0.33293 -0.508,0.33602 -0.0369,0.003 -0.23858,0.13502 -0.44813,0.29316 -0.20955,0.15814 -0.54389,0.39374 -0.74298,0.52355 -2.11653,1.37996 -4.93246,4.30708 -6.596691,6.85716 -0.34045,0.52167 -0.619,0.97299 -0.619,1.00293 0,0.0299 -0.0718,0.15558 -0.15949,0.27918 -0.29481,0.41538 -1.26663,2.33181 -1.74548,3.44207 -0.51083,1.18439 -1.09582,2.95875 -1.56657,4.75157 -0.14369,0.54722 -0.6393,3.09657 -0.72224,3.7151 -0.2974,2.21764 -0.43987,5.2078 -0.36511,7.66233 0.0559,1.83332 0.0669,2.01694 0.24158,4.02167 0.0966,1.10905 0.47992,4.0756 0.53982,4.17812 0.0177,0.0304 0.0567,0.26089 0.0866,0.51228 0.23465,1.97515 1.4775,7.4764 2.42165,10.71893 0.30711,1.05474 0.30911,1.12596 0.0345,1.23037 -0.13215,0.0502 -0.31797,0.0725 -0.41293,0.0495 -0.23257,-0.0563 -3.79565,-0.43589 -5.63363,-0.60014 -4.04832,-0.36178 -9.73757,-0.34177 -13.462,0.0473 -4.6331,0.48405 -8.9796,1.38007 -11.684,2.40861 -0.16298,0.062 -0.50588,0.17592 -0.762,0.25318 -0.49662,0.14981 -1.60549,0.59317 -2.37067,0.94788 -0.93602,0.4339 -1.31506,0.61772 -1.43933,0.69801 -0.0699,0.0451 -0.37465,0.19867 -0.67733,0.3412 -0.30269,0.14253 -0.66845,0.33029 -0.81282,0.41725 -0.14436,0.087 -0.52536,0.29915 -0.84667,0.47152 -0.32129,0.17237 -0.78257,0.46209 -1.02504,0.64381 -0.24248,0.18172 -0.47108,0.33293 -0.508,0.33602 -0.0369,0.003 -0.23859,0.13501 -0.44814,0.29316 -0.20955,0.15814 -0.54389,0.39374 -0.74298,0.52355 -2.11653,1.37996 -4.93245,4.30707 -6.59669,6.85716 -0.34045,0.52167 -0.619,0.97299 -0.619,1.00293 0,0.0299 -0.0718,0.15557 -0.15949,0.27918 -0.2948,0.41538 -1.26662,2.33181 -1.74547,3.44207 -0.51083,1.18439 -1.09582,2.95875 -1.56657,4.75157 -0.14369,0.54722 -0.63931,3.09656 -0.72225,3.7151 -0.29739,2.21764 -0.43987,5.2078 -0.3651,7.66233 0.0558,1.83332 0.0669,2.01694 0.24157,4.02167 0.0966,1.10905 0.47993,4.0756 0.53982,4.17812 0.0177,0.0304 0.0567,0.26089 0.0866,0.51229 0.24043,2.0238 1.45777,7.39059 2.46975,10.88826 0.12127,0.4191 0.24127,0.87266 0.2667,1.00792 l 0.0462,0.24592 -0.4137,-0.0573 c -2.33984,-0.32391 -6.81477,-0.71996 -9.09794,-0.80522 -4.7453,-0.17719 -8.82155,0.0168 -13.11743,0.62429 -2.32665,0.32901 -5.39119,0.99219 -7.17056,1.55173 -0.23606,0.0742 -0.28558,0.0615 -0.39167,-0.10037 z M 120.58807,222.46857 c -0.18217,-0.0342 -0.82653,-0.1036 -1.4319,-0.15417 -2.50432,-0.20923 -3.81184,-0.35116 -5.08,-0.55144 -0.4191,-0.0662 -1.16205,-0.17747 -1.651,-0.2473 -1.08671,-0.1552 -3.0221,-0.48979 -3.937,-0.68063 -0.37253,-0.0777 -0.82973,-0.17014 -1.016,-0.2054 -0.83954,-0.15891 -1.50666,-0.30371 -2.37046,-0.51454 l -0.93112,-0.22726 -0.45068,-1.43019 c -0.24787,-0.7866 -0.56,-1.77309 -0.69362,-2.19219 -0.5884,-1.84547 -1.22098,-4.37442 -1.69429,-6.77333 -0.0367,-0.18626 -0.12695,-0.64346 -0.20043,-1.016 -0.10968,-0.55595 -0.44476,-2.46023 -0.67788,-3.85233 -0.23494,-1.40299 -0.474191,-3.38231 -0.475871,-3.937 -10e-4,-0.37253 -0.0402,-0.92498 -0.0868,-1.22766 -0.0839,-0.54438 -0.11309,-4.01112 -0.0414,-4.91067 0.0204,-0.25612 0.0596,-0.78952 0.087,-1.18533 0.134661,-1.94182 0.621321,-5.00587 0.974961,-6.13834 0.0436,-0.1397 0.13382,-0.4826 0.20043,-0.762 0.4816,-2.01993 1.28156,-3.91813 2.30173,-5.46167 0.32291,-0.48858 0.60616,-0.93053 0.62944,-0.9821 0.0474,-0.1049 0.35473,-0.52123 1.22767,-1.66285 1.15816,-1.51463 3.88741,-4.0032 5.03767,-4.59342 0.16298,-0.0836 0.41063,-0.23588 0.55033,-0.33832 0.27491,-0.2016 1.22179,-0.71633 2.49767,-1.35776 0.44238,-0.2224 0.86148,-0.45162 0.93133,-0.50938 0.14052,-0.11619 2.12347,-0.93457 2.921,-1.20552 0.50424,-0.1713 1.13412,-0.36145 2.30067,-0.69453 0.33402,-0.0954 0.62048,-0.21288 0.63656,-0.26112 0.0373,-0.11197 3.54323,1.66173 5.51239,2.78881 4.68294,2.68039 8.84391,5.6563 13.01337,9.30714 1.57919,1.38273 5.41666,5.22106 6.74735,6.74883 2.51413,2.88647 4.45058,5.41606 6.47176,8.45401 1.47439,2.21609 1.44783,2.14886 1.26212,3.1946 -0.0448,0.25224 -0.14139,0.83962 -0.21468,1.30528 -0.26985,1.71431 -0.32047,1.97356 -0.64194,3.28755 -0.35628,1.45638 -1.22383,3.99395 -1.59692,4.67112 -0.12829,0.23283 -0.28445,0.55668 -0.347,0.71966 -0.0626,0.16299 -0.29697,0.57536 -0.52088,0.91638 -0.22392,0.34103 -0.40714,0.64035 -0.40714,0.66515 0,0.0248 -0.1143,0.18942 -0.254,0.36581 -0.1397,0.17638 -0.254,0.3562 -0.254,0.39959 0,0.0434 -0.0952,0.16837 -0.21167,0.27774 -0.11642,0.10937 -0.21167,0.2346 -0.21167,0.2783 0,0.0437 -0.0965,0.19899 -0.21449,0.34508 -0.11801,0.14609 -0.41238,0.51327 -0.65419,0.81595 -0.81671,1.02225 -2.39942,2.49919 -3.98991,3.72327 -0.6671,0.5134 -1.56425,1.01951 -2.71907,1.53388 -0.4191,0.18668 -1.0668,0.48783 -1.43934,0.66924 -0.37253,0.1814 -0.86783,0.38524 -1.10066,0.45296 -0.23284,0.0677 -0.74719,0.24311 -1.143,0.38976 -0.62365,0.23105 -1.45638,0.46657 -2.75167,0.77825 -1.37181,0.33009 -3.85503,0.7028 -5.50333,0.826 -3.47845,0.25999 -7.44863,0.3348 -8.38943,0.15809 z m 3.4391,-3.05772 c 0.68987,-0.32988 1.37006,-0.91477 1.93363,-1.66265 1.13136,-1.50142 1.1847,-2.78684 0.15827,-3.81327 -0.86582,-0.86582 -1.95225,-1.02202 -3.09578,-0.44512 -0.95451,0.48154 -2.17779,1.89508 -2.51277,2.9036 -0.099,0.29814 -0.13469,0.61882 -0.1125,1.01156 0.0278,0.49195 0.0776,0.64293 0.34445,1.04487 0.75563,1.13807 2.09497,1.52993 3.2847,0.96101 z m -1.73834,-1.01764 c -0.45088,-0.20406 -0.59267,-0.44008 -0.59267,-0.98659 0,-0.27063 0.028,-0.52 0.0621,-0.55416 0.0631,-0.0631 2.85869,0.18891 2.93436,0.26457 0.0782,0.0783 -0.77388,0.86864 -1.16517,1.08074 -0.50911,0.27597 -0.91813,0.3405 -1.23865,0.19544 z m 1.524,-2.49004 c -0.6985,-0.07 -1.2868,-0.14192 -1.30736,-0.15977 -0.0206,-0.0179 0.16994,-0.24241 0.42333,-0.499 0.967,-0.97922 2.0011,-1.15667 2.48013,-0.42559 0.13774,0.21022 0.18822,0.84038 0.0882,1.10105 -0.0585,0.15233 0.009,0.15299 -1.68429,-0.0167 z m 15.7004,0.65514 0.35989,-0.42681 -0.39463,-0.34738 c -0.21706,-0.19105 -0.46762,-0.40857 -0.55684,-0.48335 -0.15555,-0.13043 -0.0859,-0.22179 1.70447,-2.23631 1.02664,-1.15518 1.85465,-2.12905 1.83999,-2.16417 -0.0145,-0.0351 -0.18819,-0.20853 -0.38573,-0.38538 -0.31507,-0.28211 -0.49676,-0.3565 -1.48167,-0.6067 -0.61738,-0.15684 -1.16665,-0.28605 -1.2206,-0.28713 -0.096,-0.002 -0.48548,1.00904 -0.41566,1.07886 0.0196,0.0195 0.37042,0.11006 0.77983,0.20129 0.40944,0.0912 0.75189,0.17346 0.761,0.18272 0.0279,0.0283 -2.67169,3.06269 -2.74709,3.08783 -0.0388,0.0129 -0.33052,-0.20603 -0.64831,-0.48658 -0.31779,-0.28054 -0.60233,-0.51008 -0.6323,-0.51008 -0.10848,0 -0.78574,0.7482 -0.75565,0.83477 0.0457,0.13138 3.23252,2.96495 3.34084,2.97049 0.0509,0.003 0.25453,-0.18733 0.45246,-0.42207 z m -20.32551,-0.29097 c 0.1922,-0.2085 0.34973,-0.40853 0.35005,-0.4445 0,-0.036 -0.23492,-0.27723 -0.52277,-0.53615 l -0.52336,-0.47075 1.87915,-2.11158 1.87915,-2.11157 -0.42318,-0.38605 c -0.40367,-0.36826 -0.47667,-0.39854 -1.584,-0.65714 -0.63845,-0.14911 -1.19088,-0.24105 -1.22761,-0.20432 -0.0367,0.0367 -0.14095,0.28235 -0.2316,0.54583 l -0.16481,0.47905 0.79788,0.18176 c 0.43884,0.1 0.79789,0.19537 0.79789,0.212 0,0.0166 -0.62148,0.73106 -1.38106,1.58762 l -1.38107,1.55739 -0.58743,-0.53396 c -0.32309,-0.29368 -0.63152,-0.53499 -0.68539,-0.53624 -0.0539,-0.001 -0.25597,0.18645 -0.44909,0.41713 l -0.35115,0.4194 0.32209,0.28816 c 1.7624,1.57672 3.03214,2.68303 3.07939,2.68303 0.0316,0 0.21473,-0.1706 0.40692,-0.37911 z m 16.50154,-4.28377 c 0.96377,-0.47235 2.08823,-1.70632 2.52704,-2.77319 0.40328,-0.98052 0.19574,-1.96031 -0.57169,-2.69871 -1.3009,-1.2517 -3.04747,-0.91107 -4.5866,0.89451 -0.86643,1.01642 -1.24677,2.01972 -1.07654,2.83976 0.18053,0.86952 0.90437,1.66451 1.77969,1.95459 0.55391,0.18355 1.27691,0.1022 1.9281,-0.21696 z m -2.14823,-1.21298 c -0.25921,-0.25922 -0.28787,-0.33531 -0.28787,-0.76466 0,-0.3508 0.0344,-0.48998 0.13015,-0.52672 0.13184,-0.0506 2.12426,0.11072 2.65806,0.21521 l 0.29054,0.0569 -0.49535,0.48363 c -0.60175,0.58748 -1.06109,0.82353 -1.60259,0.82353 -0.34776,0 -0.44577,-0.0407 -0.69294,-0.28786 z m 1.98215,-2.24375 c -0.73056,-0.0765 -1.35921,-0.17046 -1.397,-0.20875 -0.0978,-0.0991 0.8163,-0.92693 1.26172,-1.14254 0.55073,-0.26661 1.08207,-0.24396 1.40748,0.06 0.14195,0.1326 0.28358,0.34264 0.31472,0.46675 0.0774,0.30819 -0.0328,0.98812 -0.15796,0.97457 -0.0554,-0.006 -0.69839,-0.0735 -1.42896,-0.15004 z m -20.07521,3.08174 c 1.50161,-0.74214 2.87423,-2.78191 2.69394,-4.0033 -0.0778,-0.52703 -0.42592,-1.15479 -0.83418,-1.50424 -0.86304,-0.73873 -1.85857,-0.87697 -2.85602,-0.3966 -1.04877,0.5051 -2.23802,1.83008 -2.61883,2.91773 -0.3473,0.99196 -0.13419,1.89216 0.60959,2.57494 0.94472,0.86724 1.83631,0.98931 3.0055,0.41147 z m -2.16233,-1.1299 c -0.14195,-0.13261 -0.28398,-0.34422 -0.31562,-0.47026 -0.0579,-0.23069 -0.001,-0.79187 0.0892,-0.88222 0.0636,-0.0636 2.83025,0.20337 2.9061,0.28043 0.0825,0.0838 -0.85943,0.94246 -1.25541,1.14447 -0.19797,0.101 -0.49827,0.16869 -0.7484,0.16869 -0.34233,0 -0.46434,-0.0435 -0.67586,-0.24111 z m 1.91754,-2.2905 c -0.73057,-0.0765 -1.34998,-0.16081 -1.37645,-0.18729 -0.079,-0.079 0.90625,-0.97092 1.28702,-1.16518 0.20959,-0.10692 0.51205,-0.17992 0.74552,-0.17992 0.33387,0 0.43605,0.0432 0.6807,0.28787 0.2509,0.25089 0.28787,0.34244 0.28787,0.71274 0,0.48787 -0.0613,0.69739 -0.19956,0.68182 -0.0532,-0.006 -0.69452,-0.0735 -1.4251,-0.15004 z m 15.59529,0.65848 0.36576,-0.43379 -0.54304,-0.48882 -0.54303,-0.48882 0.17619,-0.19922 c 0.0969,-0.10957 0.92559,-1.04577 1.8415,-2.08044 0.91593,-1.03468 1.66531,-1.91695 1.66531,-1.96062 0,-0.0437 -0.18097,-0.22926 -0.40216,-0.41244 -0.34825,-0.28843 -0.54653,-0.36891 -1.47945,-0.60055 -0.59248,-0.14713 -1.13236,-0.2675 -1.19967,-0.2675 -0.0727,0 -0.1818,0.18061 -0.26855,0.4445 -0.0804,0.24447 -0.16206,0.48776 -0.18148,0.54064 -0.022,0.0599 0.21405,0.14918 0.62616,0.2368 0.36383,0.0774 0.72628,0.16744 0.80547,0.20019 0.11631,0.0481 -0.1162,0.35242 -1.20988,1.58354 -0.74462,0.8382 -1.38848,1.52399 -1.43076,1.52399 -0.0423,0 -0.34322,-0.23842 -0.66869,-0.52981 l -0.59176,-0.52982 -0.38431,0.40282 c -0.21138,0.22155 -0.38277,0.44091 -0.38092,0.48748 0.003,0.0896 3.28351,3.00567 3.38069,3.00567 0.0312,0 0.22143,-0.19521 0.42262,-0.4338 z m -20.04864,-0.92117 c 0.96271,-0.36393 2.05412,-1.41918 2.65967,-2.57156 0.40441,-0.76959 0.4868,-1.58584 0.22077,-2.18724 -0.24581,-0.55572 -0.72132,-1.03988 -1.31036,-1.33423 -1.15142,-0.57537 -2.33573,-0.22962 -3.57947,1.04497 -1.64316,1.68392 -1.87883,3.36226 -0.63049,4.49006 0.78164,0.70616 1.7221,0.90495 2.63988,0.558 z m -1.50656,-1.0938 c -0.0969,-0.0416 -0.2779,-0.19645 -0.40217,-0.34413 -0.17493,-0.2079 -0.22563,-0.35779 -0.22463,-0.66417 0.002,-0.64434 -0.0483,-0.62954 1.59237,-0.46713 0.79988,0.0792 1.45433,0.17118 1.45433,0.20443 0,0.12072 -1.00124,0.98374 -1.31285,1.1316 -0.38426,0.18235 -0.8657,0.24297 -1.10705,0.1394 z m 1.37708,-2.52928 -1.25449,-0.12834 0.49249,-0.49858 c 0.95525,-0.96707 1.80754,-1.16083 2.37627,-0.54023 0.27967,0.30516 0.34855,0.65553 0.22186,1.1283 -0.06,0.22374 -0.0341,0.2232 -1.83613,0.0389 z m 37.86755,2.18017 0.35988,-0.42681 -0.39462,-0.34737 c -0.21707,-0.19106 -0.46763,-0.40857 -0.55684,-0.48336 -0.15555,-0.13043 -0.0859,-0.22179 1.70447,-2.23631 1.02664,-1.15518 1.85465,-2.12905 1.83999,-2.16417 -0.0145,-0.0351 -0.1882,-0.20853 -0.38574,-0.38538 -0.31506,-0.28211 -0.49675,-0.3565 -1.48166,-0.6067 -0.61738,-0.15684 -1.16666,-0.28605 -1.2206,-0.28713 -0.096,-0.002 -0.48549,1.00904 -0.41566,1.07886 0.0196,0.0195 0.37041,0.11006 0.77983,0.20129 0.40944,0.0912 0.75189,0.17346 0.76099,0.18272 0.0279,0.0283 -2.67168,3.0627 -2.74709,3.08783 -0.0388,0.0129 -0.33051,-0.20603 -0.6483,-0.48658 -0.3178,-0.28054 -0.60233,-0.51008 -0.63231,-0.51008 -0.10848,0 -0.78573,0.7482 -0.75565,0.83477 0.0457,0.13138 3.23252,2.96495 3.34084,2.97049 0.0509,0.003 0.25453,-0.18733 0.45247,-0.42207 z m -22.22283,-2.40952 -0.54928,-0.508 1.86891,-2.10564 1.86894,-2.10564 -0.19574,-0.20981 c -0.38761,-0.41549 -0.69474,-0.55913 -1.79109,-0.83766 -0.6127,-0.15564 -1.1379,-0.28388 -1.16713,-0.28496 -0.0875,-0.003 -0.44027,1.01448 -0.37452,1.0803 0.0334,0.0334 0.39611,0.13694 0.80605,0.23008 l 0.74536,0.16933 -1.39959,1.58416 -1.3996,1.58416 -0.61118,-0.54699 c -0.33613,-0.30085 -0.63405,-0.547 -0.66204,-0.547 -0.0912,0 -0.73002,0.71683 -0.73221,0.82159 0,0.0561 0.75036,0.76945 1.67005,1.58532 l 1.67216,1.48342 0.40011,-0.44233 0.4001,-0.44233 z m -20.11243,0.58074 c 0.19023,-0.2161 0.34347,-0.41613 0.34053,-0.4445 -0.003,-0.0284 -0.24582,-0.25793 -0.53974,-0.51014 l -0.5344,-0.45856 1.85207,-2.08107 c 1.01864,-1.14458 1.85082,-2.11933 1.8493,-2.1661 -0.002,-0.0468 -0.17646,-0.2336 -0.38875,-0.41518 -0.34602,-0.29598 -0.50919,-0.35962 -1.57659,-0.61491 -0.65485,-0.15661 -1.197,-0.27475 -1.20477,-0.26252 -0.0748,0.11778 -0.36755,1.03969 -0.33912,1.06812 0.0205,0.0205 0.38543,0.11833 0.8109,0.21734 l 0.77358,0.18001 -1.369,1.54322 c -0.75296,0.84877 -1.39946,1.54322 -1.43668,1.54322 -0.0372,0 -0.32663,-0.2286 -0.64313,-0.508 -0.3165,-0.2794 -0.606,-0.508 -0.64335,-0.508 -0.086,0 -0.71132,0.7437 -0.71132,0.84599 0,0.1042 3.19256,2.95334 3.31597,2.95927 0.0543,0.003 0.25428,-0.17208 0.4445,-0.38819 z m 38.51129,-2.74596 c 0.96377,-0.47235 2.08822,-1.70632 2.52703,-2.77319 0.40328,-0.98052 0.19574,-1.96031 -0.57168,-2.69871 -1.3009,-1.25171 -3.04747,-0.91108 -4.58661,0.89451 -0.86643,1.01642 -1.24677,2.01971 -1.07653,2.83976 0.18052,0.86952 0.90437,1.66451 1.77969,1.95459 0.55391,0.18355 1.27691,0.1022 1.9281,-0.21696 z m -2.14823,-1.21298 c -0.25922,-0.25922 -0.28787,-0.33532 -0.28787,-0.76466 0,-0.3508 0.0344,-0.48998 0.13015,-0.52672 0.13184,-0.0506 2.12426,0.11072 2.65806,0.21521 l 0.29054,0.0569 -0.49536,0.48363 c -0.60174,0.58748 -1.06108,0.82353 -1.60258,0.82353 -0.34777,0 -0.44577,-0.0407 -0.69294,-0.28786 z m 1.98215,-2.24375 c -0.73057,-0.0765 -1.35922,-0.17047 -1.397,-0.20875 -0.0978,-0.0991 0.81629,-0.92693 1.26172,-1.14255 0.55073,-0.26661 1.08206,-0.24395 1.40748,0.06 0.14194,0.13261 0.28358,0.34265 0.31472,0.46676 0.0774,0.30818 -0.0328,0.98812 -0.15796,0.97457 -0.0554,-0.006 -0.69839,-0.0735 -1.42896,-0.15004 z m -22.41651,2.68628 0.36931,-0.438 -0.54134,-0.49023 c -0.50117,-0.45387 -0.53165,-0.50145 -0.41098,-0.6415 0.0717,-0.0832 0.898,-1.017 1.83627,-2.07512 0.93824,-1.05811 1.7059,-1.95813 1.7059,-2.00005 0,-0.0419 -0.1637,-0.2271 -0.36378,-0.41153 -0.32996,-0.30416 -0.46971,-0.3613 -1.50283,-0.61462 -0.62648,-0.15361 -1.17023,-0.28379 -1.20833,-0.28928 -0.0381,-0.006 -0.16081,0.22975 -0.27265,0.52279 -0.23447,0.61428 -0.28432,0.55811 0.68289,0.76972 0.34393,0.0752 0.62553,0.17492 0.62574,0.22149 0,0.0954 -2.62792,3.09033 -2.71213,3.09033 -0.0298,0 -0.1024,-0.0581 -0.16135,-0.12915 -0.0589,-0.071 -0.32795,-0.3204 -0.59777,-0.55415 l -0.49059,-0.425 -0.36509,0.39608 c -0.20081,0.21785 -0.3651,0.43399 -0.3651,0.48032 0,0.0827 3.25378,3.01668 3.35226,3.02279 0.0276,0.002 0.21643,-0.19399 0.41957,-0.43489 z m 17.69179,-2.36646 0.36576,-0.43379 -0.54303,-0.48882 -0.54303,-0.48882 0.17619,-0.19922 c 0.0969,-0.10957 0.92559,-1.04577 1.8415,-2.08045 0.91593,-1.03467 1.66531,-1.91695 1.66531,-1.96061 0,-0.0437 -0.18097,-0.22927 -0.40217,-0.41245 -0.34824,-0.28842 -0.54652,-0.3689 -1.47944,-0.60055 -0.59248,-0.14712 -1.13236,-0.26749 -1.19967,-0.26749 -0.0727,0 -0.1818,0.1806 -0.26856,0.4445 -0.0804,0.24447 -0.16205,0.48776 -0.18147,0.54064 -0.022,0.0599 0.21404,0.14917 0.62616,0.23679 0.36383,0.0774 0.72628,0.16745 0.80547,0.20019 0.11631,0.0481 -0.1162,0.35243 -1.20989,1.58354 -0.74461,0.8382 -1.38848,1.524 -1.43076,1.524 -0.0423,0 -0.34321,-0.23842 -0.66868,-0.52982 l -0.59177,-0.52981 -0.3843,0.40281 c -0.21138,0.22155 -0.38278,0.44092 -0.38092,0.48749 0.003,0.0896 3.2835,3.00567 3.38068,3.00567 0.0312,0 0.22143,-0.19521 0.42262,-0.4338 z m -21.46362,-2.23531 c 0.711,-0.34872 1.84795,-1.49993 2.25559,-2.28389 0.3548,-0.68232 0.52363,-1.37129 0.44384,-1.81094 -0.1359,-0.7485 -0.7084,-1.47439 -1.48911,-1.8881 -0.50107,-0.26552 -1.54541,-0.27347 -2.09932,-0.016 -0.94884,0.44106 -1.93898,1.43535 -2.50833,2.51882 -0.40441,0.76959 -0.4868,1.58585 -0.22076,2.18725 0.24616,0.55652 0.72096,1.03936 1.318,1.34036 0.47262,0.23828 0.58225,0.2603 1.15709,0.23243 0.48894,-0.0237 0.75184,-0.0881 1.143,-0.27994 z m -1.86958,-0.96893 c -0.0969,-0.0392 -0.28197,-0.19696 -0.41122,-0.35055 -0.20724,-0.24631 -0.23058,-0.33216 -0.1978,-0.72757 0.0205,-0.24658 0.0553,-0.46645 0.0775,-0.48861 0.0426,-0.0426 2.88265,0.21534 2.9465,0.26766 0.0206,0.0169 -0.16994,0.24057 -0.42333,0.49716 -0.7152,0.72423 -1.45115,1.02056 -1.99162,0.80191 z m 1.36616,-2.51329 c -0.60284,-0.0654 -1.11719,-0.14048 -1.143,-0.1668 -0.0926,-0.0944 0.97147,-0.99305 1.41794,-1.19745 0.59839,-0.27395 0.972,-0.222 1.35031,0.18773 0.22424,0.24287 0.27517,0.36748 0.27517,0.67334 0,0.20643 -0.0231,0.43559 -0.0514,0.50925 -0.0619,0.16136 -0.31395,0.16053 -1.84903,-0.006 z m 17.43364,0.94433 -0.54927,-0.508 1.86891,-2.10565 1.86894,-2.10563 -0.19574,-0.20981 c -0.38762,-0.4155 -0.69474,-0.55913 -1.7911,-0.83766 -0.61269,-0.15565 -1.13789,-0.28388 -1.16713,-0.28496 -0.0875,-0.003 -0.44026,1.01447 -0.37452,1.0803 0.0334,0.0334 0.39611,0.13694 0.80606,0.23007 l 0.74536,0.16934 -1.3996,1.58416 -1.39959,1.58416 -0.61119,-0.547 c -0.33612,-0.30084 -0.63405,-0.54699 -0.66204,-0.54699 -0.0912,0 -0.73001,0.71683 -0.73221,0.82158 0,0.056 0.75036,0.76945 1.67005,1.58533 l 1.67217,1.48341 0.4001,-0.44233 0.40011,-0.44232 z m -21.55109,-1.016 c -1e-5,-0.0466 -0.22454,-0.27517 -0.49897,-0.508 -0.27441,-0.23284 -0.50154,-0.44464 -0.50471,-0.47069 -0.003,-0.026 0.83509,-0.99317 1.86283,-2.14918 l 1.86861,-2.10185 -0.40811,-0.36284 c -0.3701,-0.32904 -0.50817,-0.38792 -1.48235,-0.63217 -0.59083,-0.14813 -1.13711,-0.27502 -1.21395,-0.28197 -0.0986,-0.009 -0.19684,0.14356 -0.33374,0.51783 -0.10672,0.29175 -0.17004,0.5449 -0.14072,0.56255 0.0293,0.0177 0.38722,0.10119 0.79533,0.18565 0.4081,0.0845 0.73195,0.18137 0.71967,0.21534 -0.0123,0.034 -0.62942,0.74761 -1.37139,1.58586 l -1.34904,1.52408 -0.31011,-0.24561 c -0.17056,-0.13508 -0.3602,-0.30597 -0.42144,-0.37976 -0.0612,-0.0738 -0.21758,-0.2098 -0.34743,-0.30226 l -0.23608,-0.16811 -0.36411,0.39499 c -0.20025,0.21725 -0.36409,0.4268 -0.36409,0.46566 0,0.0389 0.75932,0.74277 1.68738,1.56424 l 1.68737,1.49357 0.36254,-0.41134 c 0.1994,-0.22623 0.36253,-0.44943 0.36251,-0.49599 z m 17.92001,-2.66388 c 1.47711,-0.72717 2.83218,-2.67842 2.72846,-3.92891 -0.0732,-0.88298 -0.65551,-1.64478 -1.58112,-2.06854 -1.23317,-0.56456 -2.65491,0.0133 -3.91618,1.59166 -1.15007,1.43923 -1.29151,2.74909 -0.40561,3.75555 0.88646,1.00706 1.99033,1.23318 3.17445,0.65024 z m -1.69627,-0.91075 c -0.52269,-0.13529 -0.85675,-0.66914 -0.76364,-1.22033 0.0315,-0.18654 0.10834,-0.35875 0.1707,-0.38268 0.0624,-0.0239 0.69673,0.0169 1.40973,0.0907 0.71297,0.0738 1.35229,0.13416 1.42068,0.13407 0.19421,-2.5e-4 -0.84622,1.00235 -1.22502,1.18047 -0.39148,0.1841 -0.77544,0.25909 -1.01245,0.19774 z m 1.32995,-2.54625 c -0.71014,-0.0721 -1.29117,-0.15859 -1.29117,-0.19217 0,-0.0336 0.22548,-0.26978 0.50102,-0.5249 0.92972,-0.86074 1.68963,-1.05162 2.24509,-0.56392 0.33322,0.29256 0.43964,0.65306 0.32467,1.09969 -0.0917,0.35616 -0.0747,0.35443 -1.77961,0.1813 z m -22.21387,2.68438 0.37096,-0.43075 -0.54029,-0.49035 c -0.50836,-0.46137 -0.53233,-0.49971 -0.40553,-0.64871 0.0741,-0.0871 0.90279,-1.02701 1.8415,-2.0887 0.93871,-1.06169 1.70674,-1.9606 1.70674,-1.99758 0,-0.037 -0.18097,-0.21902 -0.40217,-0.40452 -0.35079,-0.2942 -0.53975,-0.37159 -1.47944,-0.60592 -0.5925,-0.14775 -1.13237,-0.26864 -1.19969,-0.26864 -0.0727,0 -0.1818,0.18061 -0.26856,0.4445 -0.0804,0.24447 -0.16204,0.48776 -0.18147,0.54064 -0.022,0.0599 0.21404,0.14918 0.62616,0.2368 0.36383,0.0774 0.72448,0.16744 0.80144,0.20019 0.11145,0.0474 -0.13463,0.36976 -1.20889,1.58354 -0.74186,0.8382 -1.37634,1.5332 -1.40994,1.54446 -0.0336,0.0112 -0.34076,-0.22834 -0.68256,-0.53243 l -0.62146,-0.55289 -0.35221,0.40014 c -0.19371,0.22007 -0.35221,0.44404 -0.35221,0.49772 0,0.0949 3.22875,3.00337 3.33399,3.00329 0.029,-3e-5 0.21961,-0.19388 0.42363,-0.43079 z m 18.2557,-3.08495 c 0.71102,-0.34871 1.84796,-1.49993 2.2556,-2.28389 0.35481,-0.68232 0.52364,-1.37128 0.44384,-1.81093 -0.13589,-0.7485 -0.70839,-1.47439 -1.4891,-1.8881 -0.50107,-0.26552 -1.5454,-0.27348 -2.09934,-0.016 -0.94882,0.44106 -1.93897,1.43534 -2.5083,2.51882 -0.40441,0.76959 -0.48681,1.58584 -0.22077,2.18724 0.24617,0.55653 0.72097,1.03937 1.318,1.34037 0.47262,0.23827 0.58224,0.2603 1.15707,0.23243 0.48895,-0.0237 0.75184,-0.0881 1.143,-0.27994 z m -1.86957,-0.96892 c -0.0969,-0.0392 -0.28196,-0.19696 -0.41121,-0.35055 -0.20725,-0.24631 -0.23059,-0.33217 -0.19781,-0.72758 0.0204,-0.24657 0.0553,-0.46644 0.0775,-0.4886 0.0426,-0.0427 2.88267,0.21534 2.94651,0.26766 0.0206,0.0169 -0.16994,0.24056 -0.42333,0.49715 -0.7152,0.72424 -1.45114,1.02056 -1.99163,0.80192 z m 1.36618,-2.51329 c -0.60286,-0.0654 -1.11721,-0.14049 -1.143,-0.1668 -0.0926,-0.0944 0.97147,-0.99306 1.41793,-1.19746 0.59838,-0.27394 0.972,-0.222 1.3503,0.18774 0.22426,0.24286 0.27516,0.36748 0.27516,0.67334 0,0.20642 -0.023,0.43559 -0.0514,0.50924 -0.0619,0.16136 -0.31395,0.16054 -1.84901,-0.006 z m -3.89205,-0.36642 c 1.41489,-0.69334 2.746,-2.55183 2.74362,-3.83064 -0.003,-0.86032 -0.67082,-1.78816 -1.59295,-2.20849 -1.16943,-0.53305 -2.72132,0.10052 -3.88308,1.58532 -0.55545,0.70989 -0.74604,1.06647 -0.91888,1.71913 -0.16964,0.64061 -0.096,1.16377 0.24345,1.72996 0.73477,1.22551 2.12242,1.63462 3.40784,1.00472 z m -2.07257,-1.15004 c -0.14191,-0.11941 -0.29186,-0.33966 -0.33322,-0.48946 -0.0968,-0.35046 -0.028,-0.81753 0.12923,-0.87787 0.11206,-0.043 1.66876,0.0795 2.55236,0.20086 l 0.36767,0.0505 -0.48075,0.48582 c -0.8432,0.85208 -1.68839,1.09035 -2.23529,0.63016 z m 1.8377,-2.3145 c -0.73057,-0.0765 -1.35086,-0.16169 -1.37843,-0.18925 -0.0829,-0.0829 0.9815,-1.01724 1.34893,-1.18414 0.39685,-0.18027 0.93456,-0.19994 1.21475,-0.0445 0.28012,0.15543 0.52287,0.56107 0.52351,0.87478 0,0.35537 -0.13743,0.70675 -0.2725,0.69311 -0.0594,-0.006 -0.70569,-0.0735 -1.43626,-0.15005 z m -4.65072,0.32278 0.37095,-0.43075 -0.54029,-0.49034 c -0.50835,-0.46138 -0.53232,-0.49971 -0.40552,-0.64871 0.0741,-0.0871 0.90279,-1.02702 1.8415,-2.08871 0.9387,-1.06169 1.70673,-1.9606 1.70673,-1.99758 0,-0.037 -0.18097,-0.21901 -0.40216,-0.40451 -0.3508,-0.2942 -0.53975,-0.37159 -1.47945,-0.60592 -0.59249,-0.14776 -1.13236,-0.26865 -1.19969,-0.26865 -0.0727,0 -0.1818,0.18061 -0.26855,0.4445 -0.0804,0.24448 -0.16205,0.48777 -0.18148,0.54065 -0.022,0.0599 0.21405,0.14917 0.62616,0.23679 0.36383,0.0774 0.72449,0.16744 0.80145,0.20019 0.11145,0.0474 -0.13464,0.36977 -1.2089,1.58354 -0.74186,0.8382 -1.37633,1.53321 -1.40993,1.54446 -0.0336,0.0113 -0.34076,-0.22834 -0.68256,-0.53242 l -0.62146,-0.55289 -0.35221,0.40013 c -0.19372,0.22007 -0.35221,0.44405 -0.35221,0.49772 0,0.0949 3.22875,3.00338 3.33399,3.00329 0.029,-2e-5 0.21961,-0.19388 0.42363,-0.43079 z" style="fill:#053c80;fill-opacity:1;stroke-width:0.08466666"/>
      </g>
    </g>
  </g>
</svg>